<svg width="398" height="231" viewBox="0 0 398 231" fill="none" xmlns="http://www.w3.org/2000/svg">
<g clip-path="url(#clip0_38_726)">
<path d="M397.71 0H355.19V42.5H397.71V0Z" fill="#C2231F"/>
<path d="M111.38 203.38C109.8 201.99 107.86 200.9 105.56 200.13C103.26 199.36 100.64 198.97 97.7002 198.97H85.0302V230.78H97.5102C100.45 230.78 103.09 230.38 105.42 229.58C107.75 228.78 109.71 227.66 111.31 226.24C112.91 224.82 114.13 223.13 114.97 221.17C115.81 219.22 116.24 217.09 116.24 214.79V214.7C116.24 212.4 115.83 210.29 115 208.36C114.17 206.44 112.96 204.78 111.38 203.38ZM106.94 214.92C106.94 217.49 106.11 219.48 104.44 220.87C102.78 222.26 100.58 222.96 97.8502 222.96H94.1302V206.78H97.8502C100.58 206.78 102.78 207.49 104.44 208.89C106.1 210.3 106.94 212.27 106.94 214.82V214.91V214.92ZM131.96 143.44H69.8102C63.9402 143.44 58.4802 141.23 54.4502 137.23C50.3502 133.17 48.1102 126.91 48.1102 121.16V117.08C48.1102 111.42 50.3302 106.11 54.3602 102.11C58.4102 98.1 63.7802 95.88 69.4902 95.88H131.95V53.51H80.0702C58.1602 53.65 -0.00976562 55.18 -0.00976562 119.69C-0.00976562 184.2 58.4002 184.55 80.3802 184.7L131.95 184.72V143.44H131.96ZM7.94023 230.78H17.0902V198.97H7.94023V230.78ZM57.2502 215.79L43.7002 198.98H35.1902V230.79H44.1502V213.34L58.2102 230.79H66.2102V198.98H57.2502V215.79ZM151.69 216.88C151.69 219.12 151.15 220.77 150.06 221.83C148.97 222.89 147.52 223.42 145.68 223.42C143.84 223.42 142.39 222.87 141.3 221.76C140.21 220.66 139.67 218.95 139.67 216.65V198.97H130.38V216.83C130.38 219.31 130.73 221.47 131.44 223.3C132.14 225.13 133.15 226.65 134.47 227.84C135.78 229.04 137.38 229.92 139.26 230.5C141.14 231.07 143.25 231.36 145.6 231.36C147.95 231.36 150.06 231.07 151.96 230.5C153.85 229.92 155.46 229.04 156.79 227.84C158.12 226.64 159.15 225.11 159.89 223.25C160.62 221.39 160.99 219.17 160.99 216.59V198.96H151.7V216.86L151.69 216.88ZM381.53 198.98H372.42V230.79H397.44V223.07H381.53V198.99V198.98ZM340.29 198.75L326.3 230.79H335.87L338.22 225.11H350.89L353.28 230.79H363.04L349.05 198.75H340.27H340.29ZM340.9 218.29L344.61 209.25L348.27 218.29H340.9ZM304.74 230.78H313.89V198.97H304.74V230.78ZM355.19 53.62V97.41H298.5V53.51H255.98V129.17C249.01 120.14 209.54 73.72 205.62 69.16C201.7 64.6 195.57 58.59 189.9 56.38C184.25 54.16 177.4 53.5 171.31 53.5H142.71V184.71H185.13V110.96C192.45 119.34 235.87 167.78 235.87 167.78C242.42 175.74 251.35 180.59 256.54 182.36C262.56 184.42 266.54 184.72 272.89 184.72H298.52V138.68H355.21V184.72H397.51V53.63H355.21L355.19 53.62ZM200.98 214.31C199.92 213.55 198.63 212.91 197.11 212.38C195.59 211.85 193.9 211.39 192.02 211C190.89 210.76 189.96 210.53 189.23 210.3C188.49 210.08 187.92 209.85 187.49 209.62C187.07 209.39 186.77 209.14 186.6 208.87C186.43 208.6 186.34 208.28 186.34 207.92V207.83C186.34 207.25 186.61 206.77 187.16 206.38C187.71 205.99 188.53 205.79 189.62 205.79C191.09 205.79 192.62 206.05 194.2 206.58C195.78 207.11 197.32 207.89 198.82 208.92L203.37 202.67C201.59 201.27 199.59 200.21 197.39 199.49C195.19 198.77 192.67 198.42 189.86 198.42C187.89 198.42 186.12 198.67 184.56 199.17C183 199.67 181.66 200.37 180.55 201.28C179.44 202.19 178.59 203.26 178.02 204.5C177.44 205.74 177.15 207.1 177.15 208.58V208.67C177.15 210.3 177.47 211.67 178.11 212.78C178.75 213.89 179.63 214.81 180.74 215.55C181.85 216.29 183.16 216.9 184.66 217.36C186.16 217.83 187.79 218.26 189.54 218.65C190.67 218.89 191.58 219.13 192.29 219.35C192.99 219.58 193.56 219.81 193.98 220.06C194.4 220.3 194.69 220.55 194.85 220.81C195.01 221.07 195.09 221.36 195.09 221.69V221.78C195.09 222.48 194.77 223.01 194.13 223.39C193.49 223.77 192.56 223.96 191.34 223.96C187.52 223.96 183.97 222.69 180.69 220.14L175.62 226.02C177.65 227.79 179.99 229.11 182.64 230C185.28 230.88 188.08 231.33 191.02 231.33C193.02 231.33 194.84 231.1 196.47 230.63C198.09 230.16 199.49 229.48 200.65 228.59C201.81 227.7 202.71 226.62 203.35 225.35C203.99 224.08 204.31 222.63 204.31 220.99V220.9C204.31 219.42 204.03 218.14 203.46 217.07C202.9 216 202.08 215.08 201.02 214.32L200.98 214.31ZM286.25 216.01C287.47 214.4 288.08 212.38 288.08 209.92V209.83C288.08 206.71 287.11 204.24 285.17 202.42C284.07 201.33 282.65 200.48 280.9 199.88C279.15 199.27 277.01 198.97 274.47 198.97H258.93V230.78H268.04V221.15H272.03L278.65 230.78H289.16L281.32 219.69C283.38 218.84 285.03 217.62 286.25 216.01ZM278.93 210.47C278.93 211.62 278.51 212.54 277.66 213.22C276.82 213.9 275.61 214.24 274.05 214.24H268.04V206.61H274C275.53 206.61 276.74 206.92 277.61 207.54C278.49 208.16 278.92 209.11 278.92 210.38V210.47H278.93ZM216.99 206.7H226.85V230.78H235.96V206.7H245.82V198.98H217V206.7H216.99Z" fill="black"/>
</g>
<defs>
<clipPath id="clip0_38_726">
<rect width="397.71" height="230.88" fill="white"/>
</clipPath>
</defs>
</svg>
